<svg width="500" height="513" viewBox="0 0 500 513" fill="none" xmlns="http://www.w3.org/2000/svg">
<path d="M500 256.5C500 398.161 388.071 513 250 513C111.929 513 0 398.161 0 256.5C0 114.839 111.929 0 250 0C388.071 0 500 114.839 500 256.5Z" fill="black"/>
<path d="M245.85 226.268H233.231L229.434 218.435H218.358V207.438H224.054L215.945 190.785L198.619 226.268H186L215.944 168L245.85 226.268Z" fill="white"/>
<path d="M315 204.218V227.003H303.647V204.218H315ZM305.625 185.903L287.982 207.463L272.318 188.317V227.005H260.925V170.002H271.843L287.982 189.741L305.625 168.143V185.903Z" fill="white"/>
<path d="M113.141 109.476C114.094 92.6123 118.121 85.279 129.671 79.3902C142.099 73.052 161.7 76.0016 184.764 87.683C194.699 92.7167 195.71 92.8192 213.12 90.5867C236.262 87.6181 266.054 87.6286 287.413 90.6139C303.565 92.8714 304.626 92.7586 314.585 87.7144C347.323 71.133 373.17 72.2179 382.53 90.5657C387.201 99.724 388.069 123.488 384.446 143.088C382.438 153.954 382.651 155.311 387.489 162.441C421.53 212.614 397.002 293.942 338.671 324.292C334.207 326.615 330.445 328.052 327.38 329.223C317.966 332.818 315.108 333.91 318.569 350.458C320.235 358.417 322.242 378.207 323.031 394.437C324.456 423.774 324.435 423.978 319.29 429.964C312.288 438.105 302.195 438.243 295.357 430.29C290.896 425.103 290.461 422.654 290.461 402.644C290.461 373.073 287.22 353.418 279.563 336.575C270.457 316.532 277.207 309.059 298.031 304.58C326.975 298.352 349.582 280.486 362.182 253.882C374.162 228.592 375.967 193.643 354.309 172.388C348.149 165.067 347.721 158.436 352.119 138.441C353.762 130.968 355.14 121.327 355.181 117.014C355.244 110.203 354.623 109.175 350.441 109.175C347.794 109.175 337.682 113.025 327.972 117.731L312.475 125.244C311.065 125.927 309.489 126.189 307.934 126.011C268.527 121.487 231.083 121.417 191.483 126.028C189.922 126.21 188.339 125.947 186.925 125.261L171.436 117.744C161.725 113.03 151.613 109.175 148.967 109.175C142.849 109.175 142.757 113.692 148.334 140.531C151.74 156.923 154.032 160.575 144.185 173.682C129.425 193.328 125.738 217.723 133.653 243.355C143.629 275.655 168.058 297.476 202.403 304.756C223.107 309.145 228.518 314.872 220.612 338.617C214.389 357.302 210.454 362.119 201.41 362.119C189.241 362.119 181.619 351.576 185.814 340.543C187.661 335.681 187.112 335.162 175.712 331.004C140.914 318.315 114.299 289.873 102.13 252.371C92.7246 223.386 96.863 185.66 111.952 162.857C117.089 155.094 117.168 154.435 114.771 139.572C113.415 131.158 112.681 117.616 113.141 109.476Z" fill="white"/>
<path d="M100.989 321.507C95.9749 313.985 85.8123 311.951 78.2905 316.967C70.7689 321.982 68.7363 332.147 73.7507 339.669C77.4528 345.224 81.8816 349.787 85.6425 353.547C86.3359 354.241 87.0096 354.911 87.6675 355.564C90.8179 358.694 93.5995 361.457 96.3933 364.738C102.572 371.992 108.737 381.762 112.24 399.283C113.801 407.087 119.41 411.291 122.517 413.128C125.888 415.118 129.57 416.292 132.6 417.057C138.799 418.62 146.324 419.432 153.466 419.905C161.305 420.426 169.8 420.595 177.396 420.64C177.402 429.676 184.728 437 193.764 437C202.804 437 210.133 429.671 210.133 420.629V404.258C210.133 395.216 202.804 387.887 193.764 387.887C192.221 387.887 190.552 387.892 188.784 387.898C179.178 387.928 166.657 387.965 155.629 387.235C150.312 386.883 145.94 386.384 142.735 385.773C137.799 366.392 129.824 353.496 121.314 343.505C117.552 339.09 113.657 335.226 110.488 332.083C109.895 331.495 109.328 330.932 108.791 330.395C105.135 326.739 102.744 324.14 100.989 321.507Z" fill="white"/>
</svg>
